<?xml version="1.0" encoding="UTF-8" standalone="no"?>
<!DOCTYPE svg PUBLIC "-//W3C//DTD SVG 1.1//EN"
 "http://www.w3.org/Graphics/SVG/1.1/DTD/svg11.dtd">
<!-- Generated by graphviz version 2.38.0 (20140413.2041)
 -->
<!-- Title: models_diagram Pages: 1 -->
<svg width="918pt" height="318pt"
 viewBox="0.00 0.00 918.00 318.00" xmlns="http://www.w3.org/2000/svg" xmlns:xlink="http://www.w3.org/1999/xlink">
<g id="graph0" class="graph" transform="scale(1 1) rotate(0) translate(4 314)">
<title>models_diagram</title>
<polygon fill="none" stroke="none" points="-4,4 -4,-314 914,-314 914,4 -4,4"/>
<!-- _diagram_info -->
<g id="node1" class="node"><title>_diagram_info</title>
<text text-anchor="start" x="8" y="-281.1" font-family="Times,serif" font-size="13.00">Models diagram</text>
<text text-anchor="start" x="8" y="-267.1" font-family="Times,serif" font-size="13.00">Date: Aug 31 2017 &#45; 12:39</text>
<text text-anchor="start" x="8" y="-253.1" font-family="Times,serif" font-size="13.00">Migration version: 20170831140741</text>
<text text-anchor="start" x="8" y="-239.1" font-family="Times,serif" font-size="13.00">Generated by RailRoady 1.5.3</text>
<text text-anchor="start" x="8" y="-225.1" font-family="Times,serif" font-size="13.00">http://railroady.prestonlee.com</text>
</g>
<!-- ApplicationRecord -->
<g id="node2" class="node"><title>ApplicationRecord</title>
<ellipse fill="none" stroke="black" cx="309" cy="-256.5" rx="77.1866" ry="18"/>
<text text-anchor="middle" x="309" y="-252.8" font-family="Times,serif" font-size="14.00">ApplicationRecord</text>
</g>
<!-- Item -->
<g id="node3" class="node"><title>Item</title>
<path fill="none" stroke="black" d="M416,-0.5C416,-0.5 636,-0.5 636,-0.5 642,-0.5 648,-6.5 648,-12.5 648,-12.5 648,-154.5 648,-154.5 648,-160.5 642,-166.5 636,-166.5 636,-166.5 416,-166.5 416,-166.5 410,-166.5 404,-160.5 404,-154.5 404,-154.5 404,-12.5 404,-12.5 404,-6.5 410,-0.5 416,-0.5"/>
<text text-anchor="middle" x="526" y="-151.3" font-family="Times,serif" font-size="14.00">Item</text>
<polyline fill="none" stroke="black" points="404,-143.5 648,-143.5 "/>
<text text-anchor="start" x="412" y="-128.3" font-family="Times,serif" font-size="14.00">id :integer</text>
<text text-anchor="start" x="412" y="-113.3" font-family="Times,serif" font-size="14.00">serial :integer</text>
<text text-anchor="start" x="412" y="-98.3" font-family="Times,serif" font-size="14.00">name :character varying</text>
<text text-anchor="start" x="412" y="-83.3" font-family="Times,serif" font-size="14.00">size :integer</text>
<text text-anchor="start" x="412" y="-68.3" font-family="Times,serif" font-size="14.00">descrption :text</text>
<text text-anchor="start" x="412" y="-53.3" font-family="Times,serif" font-size="14.00">category_id :integer</text>
<text text-anchor="start" x="412" y="-38.3" font-family="Times,serif" font-size="14.00">created_at :timestamp without time zone</text>
<text text-anchor="start" x="412" y="-23.3" font-family="Times,serif" font-size="14.00">updated_at :timestamp without time zone</text>
<text text-anchor="start" x="412" y="-8.3" font-family="Times,serif" font-size="14.00">user_id :integer</text>
</g>
<!-- User -->
<g id="node4" class="node"><title>User</title>
<path fill="none" stroke="black" d="M678,-203.5C678,-203.5 898,-203.5 898,-203.5 904,-203.5 910,-209.5 910,-215.5 910,-215.5 910,-297.5 910,-297.5 910,-303.5 904,-309.5 898,-309.5 898,-309.5 678,-309.5 678,-309.5 672,-309.5 666,-303.5 666,-297.5 666,-297.5 666,-215.5 666,-215.5 666,-209.5 672,-203.5 678,-203.5"/>
<text text-anchor="middle" x="788" y="-294.3" font-family="Times,serif" font-size="14.00">User</text>
<polyline fill="none" stroke="black" points="666,-286.5 910,-286.5 "/>
<text text-anchor="start" x="674" y="-271.3" font-family="Times,serif" font-size="14.00">id :integer</text>
<text text-anchor="start" x="674" y="-256.3" font-family="Times,serif" font-size="14.00">name :character varying</text>
<text text-anchor="start" x="674" y="-241.3" font-family="Times,serif" font-size="14.00">email :character varying</text>
<text text-anchor="start" x="674" y="-226.3" font-family="Times,serif" font-size="14.00">created_at :timestamp without time zone</text>
<text text-anchor="start" x="674" y="-211.3" font-family="Times,serif" font-size="14.00">updated_at :timestamp without time zone</text>
</g>
<!-- Category -->
<g id="node5" class="node"><title>Category</title>
<path fill="none" stroke="black" d="M416,-211C416,-211 636,-211 636,-211 642,-211 648,-217 648,-223 648,-223 648,-290 648,-290 648,-296 642,-302 636,-302 636,-302 416,-302 416,-302 410,-302 404,-296 404,-290 404,-290 404,-223 404,-223 404,-217 410,-211 416,-211"/>
<text text-anchor="middle" x="526" y="-286.8" font-family="Times,serif" font-size="14.00">Category</text>
<polyline fill="none" stroke="black" points="404,-279 648,-279 "/>
<text text-anchor="start" x="412" y="-263.8" font-family="Times,serif" font-size="14.00">id :integer</text>
<text text-anchor="start" x="412" y="-248.8" font-family="Times,serif" font-size="14.00">name :character varying</text>
<text text-anchor="start" x="412" y="-233.8" font-family="Times,serif" font-size="14.00">created_at :timestamp without time zone</text>
<text text-anchor="start" x="412" y="-218.8" font-family="Times,serif" font-size="14.00">updated_at :timestamp without time zone</text>
</g>
<!-- Category&#45;&gt;Item -->
<g id="edge1" class="edge"><title>Category&#45;&gt;Item</title>
<path fill="none" stroke="#5323ec" d="M526,-202.44C526,-194.152 526,-185.387 526,-176.528"/>
<ellipse fill="none" stroke="#5323ec" cx="526" cy="-206.572" rx="4" ry="4"/>
<polygon fill="#5323ec" stroke="#5323ec" points="526,-176.506 530.5,-166.506 526,-171.506 526,-166.506 526,-166.506 526,-166.506 526,-171.506 521.5,-166.506 526,-176.506 526,-176.506"/>
</g>
</g>
</svg>
